<svg width="399" height="105" viewBox="0 0 399 105" fill="none" xmlns="http://www.w3.org/2000/svg">
<g filter="url(#filter0_bd_9_94)">
<path fill-rule="evenodd" clip-rule="evenodd" d="M194.5 51C217.636 51 239.736 24 262.872 24H346C362.292 24 375.5 37.2076 375.5 53.5C375.5 69.7924 362.292 83 346 83H52.5C36.2076 83 23 69.7924 23 53.5C23 37.2076 36.2076 24 52.5 24H126.128C149.264 24 171.364 51 194.5 51Z" fill="white" fill-opacity="0.06" shape-rendering="crispEdges"/>
<path d="M194.5 51.5C206.206 51.5 217.615 44.6902 228.864 37.9764L228.942 37.9293C240.287 31.1583 251.47 24.5 262.872 24.5H346C362.016 24.5 375 37.4837 375 53.5C375 69.5163 362.016 82.5 346 82.5H52.5C36.4837 82.5 23.5 69.5163 23.5 53.5C23.5 37.4837 36.4837 24.5 52.5 24.5H126.128C137.53 24.5 148.713 31.1583 160.058 37.9293L160.136 37.9764C171.385 44.6902 182.794 51.5 194.5 51.5Z" stroke="white" stroke-opacity="0.07" shape-rendering="crispEdges"/>
</g>
<defs>
<filter id="filter0_bd_9_94" x="0" y="0" width="398.5" height="105" filterUnits="userSpaceOnUse" color-interpolation-filters="sRGB">
<feFlood flood-opacity="0" result="BackgroundImageFix"/>
<feGaussianBlur in="BackgroundImageFix" stdDeviation="5.35"/>
<feComposite in2="SourceAlpha" operator="in" result="effect1_backgroundBlur_9_94"/>
<feColorMatrix in="SourceAlpha" type="matrix" values="0 0 0 0 0 0 0 0 0 0 0 0 0 0 0 0 0 0 127 0" result="hardAlpha"/>
<feOffset dy="-1"/>
<feGaussianBlur stdDeviation="11.5"/>
<feComposite in2="hardAlpha" operator="out"/>
<feColorMatrix type="matrix" values="0 0 0 0 0.658824 0 0 0 0 0.333333 0 0 0 0 0.968627 0 0 0 1 0"/>
<feBlend mode="normal" in2="effect1_backgroundBlur_9_94" result="effect2_dropShadow_9_94"/>
<feBlend mode="normal" in="SourceGraphic" in2="effect2_dropShadow_9_94" result="shape"/>
</filter>
</defs>
</svg>
