<svg width="47" height="47" viewBox="0 0 47 47" fill="none" xmlns="http://www.w3.org/2000/svg">
<circle cx="23.5" cy="23.5" r="23.5" fill="url(#paint0_linear_9_113)"/>
<path fill-rule="evenodd" clip-rule="evenodd" d="M22.4039 15.3614C22.0426 17.9247 21.2699 19.5819 19.7834 20.9809C19.2495 21.4835 18.4169 22.083 17.9331 22.3134C16.9247 22.7932 14.9427 23.3361 14.1188 23.3577C13.7812 23.3667 14.1781 23.4887 15.1169 23.6644C19.5312 24.4913 21.9412 27.2158 22.4718 31.9793L22.5856 33L22.9448 31.1725C23.5511 28.0876 24.2673 26.6369 25.7448 25.501C26.9129 24.6028 28.0126 24.2441 31.6622 23.5718C32.2492 23.4636 32.1831 23.4358 30.559 23.1079C27.4149 22.4729 26.0518 21.8718 24.9431 20.6312C23.858 19.4167 23.2527 17.8672 22.7824 15.0992L22.5957 14L22.4039 15.3614Z" fill="white"/>
<defs>
<linearGradient id="paint0_linear_9_113" x1="14.3043" y1="23.8406" x2="55.5145" y2="21.1159" gradientUnits="userSpaceOnUse">
<stop stop-color="#A855F7"/>
<stop offset="0.58" stop-color="#5E1AF8"/>
<stop offset="1" stop-color="#A855F7"/>
</linearGradient>
</defs>
</svg>
