<svg width="161" height="28" viewBox="0 0 161 28" fill="none" xmlns="http://www.w3.org/2000/svg">
<path d="M33.2821 3.62702V6.52691H24.0835V12.9191H31.2553V15.819H24.0835V25.2982H20.5288V3.62702H33.2821ZM38.3849 5.84091C37.7405 5.84091 37.2 5.62264 36.7635 5.1861C36.3269 4.74956 36.1086 4.20908 36.1086 3.56466C36.1086 2.92024 36.3269 2.37976 36.7635 1.94321C37.2 1.50667 37.7405 1.2884 38.3849 1.2884C39.0085 1.2884 39.5386 1.50667 39.9752 1.94321C40.4117 2.37976 40.63 2.92024 40.63 3.56466C40.63 4.20908 40.4117 4.74956 39.9752 5.1861C39.5386 5.62264 39.0085 5.84091 38.3849 5.84091ZM40.1311 8.11717V25.2982H36.5764V8.11717H40.1311ZM48.3528 10.6117C48.8725 9.73861 49.5585 9.06301 50.4108 8.58489C51.2838 8.08599 52.3128 7.83653 53.4977 7.83653V11.516H52.5935C51.2007 11.516 50.1405 11.8693 49.4129 12.5761C48.7062 13.2829 48.3528 14.5094 48.3528 16.2556V25.2982H44.7981V8.11717H48.3528V10.6117ZM63.0015 25.5789C61.6503 25.5789 60.4343 25.3398 59.3533 24.8617C58.2931 24.3628 57.4512 23.6976 56.8276 22.8661C56.204 22.0138 55.8714 21.0679 55.8298 20.0285H59.5092C59.5716 20.7561 59.9146 21.3693 60.5382 21.8682C61.1826 22.3464 61.9829 22.5854 62.9392 22.5854C63.937 22.5854 64.7061 22.3983 65.2466 22.0242C65.8079 21.6292 66.0885 21.1303 66.0885 20.5274C66.0885 19.883 65.7767 19.4049 65.1531 19.0931C64.5502 18.7813 63.5836 18.4383 62.2532 18.0641C60.9643 17.7107 59.9146 17.3677 59.1038 17.0351C58.2931 16.7025 57.5863 16.1932 56.9835 15.5072C56.4014 14.8212 56.1104 13.9169 56.1104 12.7944C56.1104 11.8797 56.3807 11.0482 56.9211 10.2999C57.4616 9.53073 58.2308 8.92789 59.2286 8.49135C60.2472 8.0548 61.4113 7.83653 62.7209 7.83653C64.675 7.83653 66.2444 8.33544 67.4293 9.33325C68.635 10.3103 69.2794 11.6511 69.3626 13.3557H65.8079C65.7455 12.5865 65.4337 11.9733 64.8724 11.516C64.3112 11.0586 63.5524 10.83 62.5962 10.83C61.6607 10.83 60.9436 11.0067 60.4447 11.3601C59.9457 11.7134 59.6963 12.1812 59.6963 12.7632C59.6963 13.2206 59.8626 13.6051 60.1952 13.9169C60.5278 14.2288 60.9332 14.4782 61.4113 14.6653C61.8894 14.8316 62.5962 15.0499 63.5316 15.3201C64.7789 15.6527 65.7975 15.9957 66.5874 16.3491C67.3981 16.6817 68.0945 17.1806 68.6766 17.8458C69.2586 18.511 69.5601 19.3945 69.5809 20.4963C69.5809 21.4733 69.3106 22.3464 68.7701 23.1155C68.2297 23.8847 67.4605 24.4875 66.4627 24.924C65.4857 25.3606 64.332 25.5789 63.0015 25.5789ZM77.5689 11.0171V20.5274C77.5689 21.1719 77.7145 21.6396 78.0055 21.9306C78.3173 22.2008 78.837 22.336 79.5646 22.336H81.7473V25.2982H78.9409C77.3403 25.2982 76.1138 24.924 75.2615 24.1757C74.4092 23.4273 73.9831 22.2112 73.9831 20.5274V11.0171H71.9563V8.11717H73.9831V3.84529H77.5689V8.11717H81.7473V11.0171H77.5689ZM96.6781 6.49572V12.8568H104.162V15.7567H96.6781V22.3983H105.097V25.2982H93.1234V3.59584H105.097V6.49572H96.6781ZM125.534 3.62702L118.362 17.4405V25.2982H114.808V17.4405L107.605 3.62702H111.565L116.585 14.2599L121.605 3.62702H125.534ZM131.91 6.49572V12.8568H139.393V15.7567H131.91V22.3983H140.329V25.2982H128.355V3.59584H140.329V6.49572H131.91Z" fill="#A855F7"/>
<path d="M153.151 6.97665L14.6538 0.443044C12.841 0.357526 12.2874 2.86577 13.9678 3.55125C15.4064 4.13809 15.2674 6.21907 13.7636 6.60945L12.4103 6.96077C10.8455 7.36697 10.9729 9.62955 12.5734 9.85747C14.1324 10.0795 14.3187 12.2806 12.8231 12.7737C4.62076 15.4783 -3.9492 18.5609 1.9605 17.6327C8.78589 16.5606 90.2755 20.567 140.744 23.262C142.459 23.3536 142.836 20.8894 141.177 20.4431C139.564 20.0089 139.878 17.6327 141.549 17.6327H153.559C155.461 17.6327 156.084 15.0804 154.396 14.2041L153.821 13.948C152.346 13.2916 152.346 11.1982 153.821 10.5418C155.616 9.74294 155.113 7.06924 153.151 6.97665Z" fill="#A855F7" fill-opacity="0.45"/>
</svg>
