<svg width="105" height="117" viewBox="0 0 105 117" fill="none" xmlns="http://www.w3.org/2000/svg">
<path fill-rule="evenodd" clip-rule="evenodd" d="M0.609602 1.58004C-0.0917004 5.823 1.24495 10.722 4.04009 14.1534C6.4107 17.0637 9.57766 18.7667 19.1453 22.2767C21.9174 23.2934 25.2872 24.5298 26.6336 25.024C35.0063 28.0965 43.4986 34.2501 45.0699 38.3831C45.243 38.8387 45.3885 39.981 45.3931 40.9216C45.4104 44.5298 42.1847 48.9093 38.0598 50.8778C35.392 52.1511 33.2111 52.6304 30.1012 52.6263C25.6604 52.6209 22.2628 51.3919 19.5134 48.797C15.5588 45.0641 14.4781 41.0506 15.1895 32.7378C15.5835 28.1357 15.4772 26.7245 14.6697 25.8322C13.9096 24.9924 8.59266 22.3888 7.63762 22.3888C4.76299 22.3888 2.15276 28.8465 2.15276 35.9592C2.15276 42.7136 4.51761 48.1026 10.0704 54.001C17.1589 61.5313 24.403 64.4002 33.301 63.2015C35.4596 62.9106 36.8617 62.8657 38.0344 63.0497C41.4488 63.5851 45.3076 66.3448 49.2487 71.0702C51.3344 73.5707 51.9903 74.069 52.8399 73.7994C53.1434 73.7029 54.3318 72.4452 55.4809 71.0042C57.9074 67.9614 60.4923 65.727 63.0328 64.4765C65.7027 63.162 67.4377 62.8763 70.9871 63.1672C77.0828 63.6663 79.9566 63.272 84.8093 61.271C93.1509 57.8312 100.132 49.5034 102.276 40.4355C103.312 36.0511 102.529 29.856 100.374 25.4005C98.5937 21.7206 97.9258 21.6255 92.5086 24.283C89.8097 25.607 89.0805 26.0926 88.9379 26.6611C88.8391 27.0542 89.0617 29.2022 89.4324 31.4343C90.475 37.714 90.2622 40.86 88.5537 44.4126C86.8855 47.8817 83.7526 50.6126 79.8984 51.9576C78.1608 52.5638 77.2104 52.7078 74.8752 52.7185C69.8382 52.7415 66.2185 51.3165 62.8465 47.9827C60.3411 45.5059 59.3351 43.4552 59.3325 40.8214C59.3302 38.322 60.3512 36.4652 63.0939 33.9811C68.0992 29.4479 72.3039 27.1271 81.4995 23.8213C94.4553 19.1639 96.9221 17.9929 99.7861 15.1387C102.409 12.5247 104.396 7.82553 104.396 4.23606C104.396 2.62465 103.883 0.5 103.493 0.5C103.364 0.5 101.667 1.55124 99.7227 2.83576C90.9084 8.66076 82.6495 11.2341 68.395 12.5976C60.4099 13.3614 41.4511 13.1998 33.0288 12.296C28.991 11.8629 23.1844 10.7246 19.7107 9.6855C13.981 7.97126 7.44696 4.77781 3.32467 1.67652C1.34259 0.185493 0.842892 0.167637 0.609602 1.58004ZM74.0754 29.89C71.2518 30.3612 68.8964 32.4054 67.7856 35.3492C66.9377 37.5957 67.1157 41.2194 68.1753 43.283C70.8445 48.4822 77.3089 49.7854 81.4871 45.9667C83.9386 43.7263 84.8971 40.5305 84.1592 37.0571L83.9409 36.0286L81.2336 36.0491C78.7593 36.0675 78.463 36.0099 77.7893 35.3789C76.9518 34.5946 76.4665 33.321 76.2064 31.2249C76.1079 30.4303 75.8977 29.7532 75.7393 29.7203C75.5809 29.6872 74.832 29.7635 74.0754 29.89ZM24.7324 30.426C19.1785 32.9483 18.095 41.646 22.7849 46.062C24.9568 48.1075 29.0512 48.7656 31.8607 47.5211C35.7511 45.7973 38.1013 40.6474 36.7681 36.7674L36.4144 35.7371L34.6918 36.0923C32.098 36.6268 30.8019 36.2069 29.8636 34.5281C29.4192 33.7329 28.6497 30.8421 28.6497 29.968C28.6497 29.6408 25.7028 29.9853 24.7324 30.426ZM54.2272 53.1338C56.4541 57.8413 56.6963 59.0815 55.7479 60.9216C55.1097 62.1595 53.5429 63.7182 52.6751 63.9785C51.1285 64.4422 48.5223 61.0339 48.5223 58.5475C48.5223 57.6697 48.9304 56.4963 49.988 54.3322C50.7939 52.6831 51.5876 51.1719 51.7512 50.9737C52.4603 50.1163 53.038 50.6201 54.2272 53.1338ZM52.0294 84.6479C51.3627 89.3493 49.9367 92.389 47.1934 94.9549C46.2082 95.8768 44.6716 96.9764 43.7788 97.3989C41.918 98.2791 38.2602 99.2747 36.7398 99.3145C36.1169 99.3309 36.8493 99.5547 38.5817 99.8769C46.728 101.394 51.1755 106.391 52.1547 115.128L52.3647 117L53.0277 113.648C54.1466 107.99 55.4683 105.329 58.1948 103.246C60.3506 101.598 62.3799 100.94 69.115 99.707C70.1982 99.5086 70.0764 99.4576 67.0791 98.8562C61.2768 97.6915 58.7614 96.589 56.7153 94.3135C54.7128 92.086 53.5959 89.2439 52.7278 84.1669L52.3834 82.1508L52.0294 84.6479Z" fill="white"/>
</svg>
