<svg width="39" height="44" viewBox="0 0 39 44" fill="none" xmlns="http://www.w3.org/2000/svg">
<path fill-rule="evenodd" clip-rule="evenodd" d="M0.0687282 0.403276C-0.193132 1.98756 0.305962 3.81682 1.34964 5.09805C2.2348 6.18474 3.41731 6.82063 6.9898 8.13122C8.02487 8.51084 9.28309 8.97251 9.78584 9.15705C12.9121 10.3043 16.0831 12.602 16.6698 14.1452C16.7344 14.3153 16.7887 14.7418 16.7905 15.093C16.7969 16.4403 15.5925 18.0756 14.0523 18.8106C13.0561 19.286 12.2418 19.465 11.0806 19.4635C9.42247 19.4614 8.15381 19.0026 7.12724 18.0336C5.6506 16.6398 5.24711 15.1412 5.51273 12.0373C5.65985 10.3189 5.62017 9.79196 5.31862 9.4588C5.03483 9.14522 3.04953 8.17305 2.69292 8.17305C1.61957 8.17305 0.644929 10.5843 0.644929 13.2401C0.644929 15.7622 1.52794 17.7743 3.60132 19.9768C6.24809 22.7885 8.95295 23.8597 12.2754 23.4121C13.0814 23.3035 13.6049 23.2867 14.0428 23.3555C15.3177 23.5554 16.7585 24.5858 18.2301 26.3502C19.0089 27.2839 19.2538 27.47 19.571 27.3693C19.6844 27.3333 20.1281 26.8636 20.5572 26.3256C21.4632 25.1895 22.4284 24.3552 23.377 23.8882C24.3739 23.3974 25.0217 23.2907 26.347 23.3993C28.6231 23.5857 29.6961 23.4385 31.5081 22.6913C34.6228 21.4069 37.2295 18.2974 38.03 14.9115C38.417 13.2744 38.1244 10.9612 37.3198 9.2976C36.6551 7.92356 36.4057 7.88807 34.383 8.88035C33.3752 9.37471 33.1029 9.55602 33.0497 9.7683C33.0128 9.9151 33.0959 10.7171 33.2343 11.5506C33.6236 13.8954 33.5441 15.07 32.9062 16.3965C32.2833 17.6919 31.1135 18.7116 29.6744 19.2138C29.0256 19.4401 28.6707 19.4939 27.7988 19.4979C25.918 19.5065 24.5665 18.9744 23.3074 17.7296C22.3719 16.8048 21.9963 16.0391 21.9953 15.0556C21.9944 14.1224 22.3757 13.4291 23.3998 12.5015C25.2687 10.8089 26.8387 9.9423 30.2722 8.70796C35.1098 6.96893 36.0309 6.53167 37.1003 5.46594C38.0798 4.48991 38.8217 2.73528 38.8217 1.39501C38.8217 0.793324 38.6299 0 38.4845 0C38.4361 0 37.8026 0.392522 37.0766 0.872151C33.7855 3.04715 30.7016 4.00802 25.3792 4.51712C22.3976 4.80231 15.3186 4.74198 12.1738 4.40452C10.6661 4.24278 8.49794 3.81778 7.2009 3.42978C5.0615 2.7897 2.62173 1.59729 1.08251 0.439302C0.342418 -0.117434 0.155836 -0.124101 0.0687282 0.403276ZM27.5002 10.9739C26.4459 11.1499 25.5664 11.9132 25.1516 13.0124C24.835 13.8512 24.9015 15.2042 25.2971 15.9748C26.2938 17.9161 28.7075 18.4027 30.2676 16.9768C31.183 16.1403 31.5409 14.947 31.2654 13.6501L31.1839 13.266L30.173 13.2737C29.2491 13.2806 29.1384 13.2591 28.8869 13.0234C28.5742 12.7306 28.393 12.2551 28.2959 11.4724C28.2591 11.1757 28.1806 10.9229 28.1214 10.9106C28.0623 10.8982 27.7827 10.9267 27.5002 10.9739ZM9.07597 11.1741C7.00217 12.1159 6.5976 15.3635 8.34879 17.0124C9.15975 17.7762 10.6885 18.0219 11.7376 17.5572C13.1902 16.9136 14.0678 14.9907 13.57 13.5419L13.4379 13.1572L12.7947 13.2898C11.8262 13.4894 11.3423 13.3326 10.9919 12.7058C10.826 12.4088 10.5386 11.3295 10.5386 11.0031C10.5386 10.8809 9.43827 11.0095 9.07597 11.1741ZM20.089 19.653C20.9205 21.4107 21.011 21.8738 20.6569 22.5609C20.4185 23.0231 19.8335 23.6051 19.5095 23.7023C18.932 23.8754 17.9589 22.6028 17.9589 21.6744C17.9589 21.3466 18.1113 20.9085 18.5062 20.1004C18.8071 19.4847 19.1034 18.9204 19.1645 18.8464C19.4293 18.5263 19.645 18.7144 20.089 19.653ZM19.2684 31.42C19.0194 33.1755 18.487 34.3105 17.4627 35.2686C17.0948 35.6128 16.5211 36.0234 16.1877 36.1811C15.4929 36.5098 14.1271 36.8815 13.5594 36.8964C13.3268 36.9025 13.6003 36.9861 14.2471 37.1064C17.2889 37.6727 18.9495 39.5387 19.3152 42.801L19.3936 43.5L19.6411 42.2484C20.0589 40.1357 20.5524 39.1422 21.5705 38.3642C22.3755 37.7491 23.1332 37.5035 25.648 37.043C26.0525 36.9689 26.007 36.9498 24.8878 36.7253C22.7213 36.2904 21.782 35.8787 21.0181 35.0291C20.2704 34.1973 19.8533 33.1361 19.5292 31.2404L19.4006 30.4876L19.2684 31.42Z" fill="#9100F9"/>
</svg>
