<svg width="234" height="59" viewBox="0 0 234 59" fill="none" xmlns="http://www.w3.org/2000/svg">
<mask id="path-1-outside-1_1_273" maskUnits="userSpaceOnUse" x="0" y="10.0828" width="233" height="39" fill="black">
<rect fill="white" y="10.0828" width="233" height="39"/>
<path d="M23.6257 46.939L18.9237 41.8515C17.7675 42.1855 16.4956 42.3526 15.1081 42.3526C12.6158 42.3526 10.3162 41.7744 8.20927 40.6182C6.12805 39.4363 4.47078 37.8047 3.23746 35.7235C2.02984 33.6166 1.42602 31.2527 1.42602 28.6319C1.42602 26.0111 2.02984 23.6601 3.23746 21.5789C4.47078 19.4976 6.12805 17.8789 8.20927 16.7227C10.3162 15.5407 12.6158 14.9498 15.1081 14.9498C17.6262 14.9498 19.9258 15.5407 22.007 16.7227C24.1139 17.8789 25.7712 19.4976 26.9788 21.5789C28.1864 23.6601 28.7903 26.0111 28.7903 28.6319C28.7903 31.0985 28.2507 33.3339 27.1715 35.3381C26.1181 37.3165 24.6535 38.9095 22.7778 40.1172L29.2142 46.939H23.6257ZM5.93534 28.6319C5.93534 30.6103 6.32075 32.3575 7.09158 33.8735C7.88809 35.3638 8.98009 36.52 10.3676 37.3422C11.7551 38.1387 13.3352 38.537 15.1081 38.537C16.881 38.537 18.4612 38.1387 19.8487 37.3422C21.2362 36.52 22.3153 35.3638 23.0862 33.8735C23.8827 32.3575 24.2809 30.6103 24.2809 28.6319C24.2809 26.6534 23.8827 24.9191 23.0862 23.4288C22.3153 21.9386 21.2362 20.7952 19.8487 19.9987C18.4612 19.2022 16.881 18.8039 15.1081 18.8039C13.3352 18.8039 11.7551 19.2022 10.3676 19.9987C8.98009 20.7952 7.88809 21.9386 7.09158 23.4288C6.32075 24.9191 5.93534 26.6534 5.93534 28.6319ZM52.4588 20.8466V42.0828H48.0651V39.5776C47.3713 40.4512 46.4592 41.1449 45.3286 41.6588C44.2238 42.147 43.0419 42.3911 41.7829 42.3911C40.1127 42.3911 38.6096 42.0442 37.2735 41.3505C35.9631 40.6567 34.9225 39.629 34.1517 38.2672C33.4066 36.9054 33.034 35.261 33.034 33.3339V20.8466H37.3892V32.6787C37.3892 34.5801 37.8645 36.0446 38.8152 37.0724C39.7659 38.0745 41.0634 38.5755 42.7078 38.5755C44.3523 38.5755 45.6498 38.0745 46.6005 37.0724C47.5769 36.0446 48.0651 34.5801 48.0651 32.6787V20.8466H52.4588ZM60.4913 18.0331C59.6948 18.0331 59.0267 17.7633 58.4871 17.2237C57.9476 16.6841 57.6778 16.0161 57.6778 15.2196C57.6778 14.423 57.9476 13.755 58.4871 13.2154C59.0267 12.6758 59.6948 12.4061 60.4913 12.4061C61.2621 12.4061 61.9173 12.6758 62.4569 13.2154C62.9965 13.755 63.2662 14.423 63.2662 15.2196C63.2662 16.0161 62.9965 16.6841 62.4569 17.2237C61.9173 17.7633 61.2621 18.0331 60.4913 18.0331ZM62.6496 20.8466V42.0828H58.2559V20.8466H62.6496ZM66.9536 31.4454C66.9536 29.2614 67.3904 27.3472 68.264 25.7028C69.1632 24.0326 70.3966 22.7479 71.9639 21.8486C73.5312 20.9494 75.3298 20.4997 77.3597 20.4997C79.9291 20.4997 82.0488 21.1164 83.719 22.3497C85.4148 23.5573 86.5582 25.2917 87.1491 27.5527H82.4086C82.0232 26.4993 81.4065 25.6771 80.5586 25.0861C79.7107 24.4951 78.6444 24.1997 77.3597 24.1997C75.5611 24.1997 74.1222 24.842 73.0431 26.1267C71.9896 27.3857 71.4629 29.1586 71.4629 31.4454C71.4629 33.7322 71.9896 35.5179 73.0431 36.8026C74.1222 38.0873 75.5611 38.7297 77.3597 38.7297C79.9034 38.7297 81.5864 37.612 82.4086 35.3766H87.1491C86.5325 37.5349 85.3762 39.2564 83.6804 40.5411C81.9846 41.8001 79.8777 42.4296 77.3597 42.4296C75.3298 42.4296 73.5312 41.98 71.9639 41.0807C70.3966 40.1557 69.1632 38.871 68.264 37.2266C67.3904 35.5565 66.9536 33.6294 66.9536 31.4454ZM99.9297 31.4839L109.719 42.0828H103.784L95.9215 32.9485V42.0828H91.5278V13.5623H95.9215V30.135L103.63 20.8466H109.719L99.9297 31.4839ZM148.587 20.4997C150.257 20.4997 151.747 20.8466 153.058 21.5403C154.394 22.2341 155.435 23.2618 156.18 24.6236C156.951 25.9854 157.336 27.6298 157.336 29.5569V42.0828H152.981V30.2121C152.981 28.3107 152.505 26.859 151.555 25.8569C150.604 24.8292 149.307 24.3153 147.662 24.3153C146.018 24.3153 144.707 24.8292 143.731 25.8569C142.78 26.859 142.305 28.3107 142.305 30.2121V42.0828H137.95V30.2121C137.95 28.3107 137.474 26.859 136.524 25.8569C135.573 24.8292 134.275 24.3153 132.631 24.3153C130.987 24.3153 129.676 24.8292 128.7 25.8569C127.749 26.859 127.274 28.3107 127.274 30.2121V42.0828H122.88V20.8466H127.274V23.2747C127.993 22.4011 128.905 21.7202 130.01 21.232C131.115 20.7438 132.297 20.4997 133.556 20.4997C135.252 20.4997 136.768 20.8594 138.104 21.5789C139.44 22.2983 140.468 23.3389 141.187 24.7007C141.83 23.416 142.832 22.4011 144.193 21.6559C145.555 20.8851 147.02 20.4997 148.587 20.4997ZM182.39 30.9444C182.39 31.7409 182.339 32.4603 182.236 33.1027H166.01C166.139 34.7985 166.768 36.1603 167.899 37.188C169.029 38.2158 170.417 38.7297 172.061 38.7297C174.425 38.7297 176.095 37.7405 177.071 35.762H181.812C181.17 37.7148 180.001 39.3206 178.305 40.5797C176.635 41.813 174.553 42.4296 172.061 42.4296C170.031 42.4296 168.207 41.98 166.588 41.0807C164.995 40.1557 163.736 38.871 162.811 37.2266C161.912 35.5565 161.462 33.6294 161.462 31.4454C161.462 29.2614 161.899 27.3472 162.773 25.7028C163.672 24.0326 164.918 22.7479 166.511 21.8486C168.13 20.9494 169.98 20.4997 172.061 20.4997C174.065 20.4997 175.851 20.9365 177.418 21.8101C178.986 22.6837 180.206 23.917 181.08 25.5101C181.953 27.0774 182.39 28.8888 182.39 30.9444ZM177.804 29.5569C177.778 27.9382 177.2 26.6406 176.069 25.6642C174.939 24.6878 173.538 24.1997 171.868 24.1997C170.352 24.1997 169.055 24.6878 167.976 25.6642C166.897 26.6149 166.254 27.9125 166.049 29.5569H177.804ZM197.428 20.4997C199.099 20.4997 200.589 20.8466 201.899 21.5403C203.235 22.2341 204.276 23.2618 205.021 24.6236C205.766 25.9854 206.139 27.6298 206.139 29.5569V42.0828H201.784V30.2121C201.784 28.3107 201.308 26.859 200.358 25.8569C199.407 24.8292 198.109 24.3153 196.465 24.3153C194.82 24.3153 193.51 24.8292 192.534 25.8569C191.583 26.859 191.108 28.3107 191.108 30.2121V42.0828H186.714V20.8466H191.108V23.2747C191.827 22.4011 192.739 21.7202 193.844 21.232C194.975 20.7438 196.169 20.4997 197.428 20.4997ZM230.975 20.8466V42.0828H226.581V39.5776C225.888 40.4512 224.976 41.1449 223.845 41.6588C222.74 42.147 221.558 42.3911 220.299 42.3911C218.629 42.3911 217.126 42.0442 215.79 41.3505C214.48 40.6567 213.439 39.629 212.668 38.2672C211.923 36.9054 211.55 35.261 211.55 33.3339V20.8466H215.906V32.6787C215.906 34.5801 216.381 36.0446 217.332 37.0724C218.282 38.0745 219.58 38.5755 221.224 38.5755C222.869 38.5755 224.166 38.0745 225.117 37.0724C226.093 36.0446 226.581 34.5801 226.581 32.6787V20.8466H230.975Z"/>
</mask>
<path d="M23.6257 46.939L22.6149 47.8732L23.0236 48.3154H23.6257V46.939ZM18.9237 41.8515L19.9346 40.9172L19.3579 40.2933L18.5417 40.5291L18.9237 41.8515ZM8.20927 40.6182L7.52954 41.8151L7.53826 41.8201L7.54705 41.8249L8.20927 40.6182ZM3.23746 35.7235L2.04325 36.408L2.04821 36.4166L2.05329 36.4252L3.23746 35.7235ZM3.23746 21.5789L2.05324 20.8771L2.0469 20.888L3.23746 21.5789ZM8.20927 16.7227L8.87775 17.9259L8.88271 17.9231L8.20927 16.7227ZM22.007 16.7227L21.3273 17.9196L21.336 17.9245L21.3448 17.9294L22.007 16.7227ZM26.9788 21.5789L25.7883 22.2697L26.9788 21.5789ZM27.1715 35.3381L25.9596 34.6855L25.9566 34.6911L27.1715 35.3381ZM22.7778 40.1172L22.0327 38.9598L20.6397 39.8567L21.7767 41.0618L22.7778 40.1172ZM29.2142 46.939V48.3154H32.4053L30.2154 45.9943L29.2142 46.939ZM7.09158 33.8735L5.86461 34.4974L5.87099 34.5099L5.87762 34.5223L7.09158 33.8735ZM10.3676 37.3422L9.66585 38.5264L9.67403 38.5312L9.68228 38.5359L10.3676 37.3422ZM19.8487 37.3422L20.534 38.5359L20.5423 38.5312L20.5504 38.5264L19.8487 37.3422ZM23.0862 33.8735L21.8676 33.2332L21.8636 33.2411L23.0862 33.8735ZM23.0862 23.4288L21.8636 24.0612L21.8678 24.0695L21.8722 24.0777L23.0862 23.4288ZM19.8487 19.9987L19.1634 21.1924H19.1634L19.8487 19.9987ZM10.3676 19.9987L11.0529 21.1924L11.0529 21.1924L10.3676 19.9987ZM7.09158 23.4288L5.87762 22.78L5.87324 22.7882L5.86897 22.7965L7.09158 23.4288ZM24.6366 46.0047L19.9346 40.9172L17.9129 42.7858L22.6149 47.8732L24.6366 46.0047ZM18.5417 40.5291C17.5269 40.8223 16.3857 40.9761 15.1081 40.9761V43.729C16.6056 43.729 18.0081 43.5488 19.3057 43.1739L18.5417 40.5291ZM15.1081 40.9761C12.8384 40.9761 10.7678 40.4521 8.87149 39.4115L7.54705 41.8249C9.86459 43.0967 12.3932 43.729 15.1081 43.729V40.9761ZM8.88901 39.4213C7.01851 38.359 5.53415 36.8991 4.42163 35.0217L2.05329 36.4252C3.4074 38.7103 5.23758 40.5135 7.52954 41.8151L8.88901 39.4213ZM4.43167 35.039C3.35287 33.1568 2.80249 31.0322 2.80249 28.6319H0.049553C0.049553 31.4732 0.706801 34.0763 2.04325 36.408L4.43167 35.039ZM2.80249 28.6319C2.80249 26.2314 3.35289 24.1226 4.42802 22.2697L2.0469 20.888C0.706777 23.1976 0.049553 25.7908 0.049553 28.6319H2.80249ZM4.42163 22.2806C5.53265 20.4057 7.01342 18.9617 8.87774 17.9259L7.5408 15.5194C5.24268 16.7962 3.40891 18.5895 2.05329 20.8771L4.42163 22.2806ZM8.88271 17.9231C10.7772 16.8604 12.8439 16.3262 15.1081 16.3262V13.5733C12.3878 13.5733 9.85513 14.2211 7.53583 15.5222L8.88271 17.9231ZM15.1081 16.3262C17.4007 16.3262 19.4642 16.8615 21.3273 17.9196L22.6867 15.5257C20.3874 14.2199 17.8516 13.5733 15.1081 13.5733V16.3262ZM21.3448 17.9294C23.2316 18.9648 24.7063 20.4051 25.7883 22.2697L28.1694 20.888C26.8361 18.5902 24.9962 16.793 22.6692 15.516L21.3448 17.9294ZM25.7883 22.2697C26.8634 24.1226 27.4138 26.2314 27.4138 28.6319H30.1667C30.1667 25.7908 29.5095 23.1976 28.1694 20.888L25.7883 22.2697ZM27.4138 28.6319C27.4138 30.8903 26.9218 32.8984 25.9596 34.6855L28.3835 35.9906C29.5795 33.7694 30.1667 31.3068 30.1667 28.6319H27.4138ZM25.9566 34.6911C25.013 36.4632 23.7098 37.8801 22.0327 38.9598L23.523 41.2745C25.5972 39.939 27.2231 38.1699 28.3865 35.985L25.9566 34.6911ZM21.7767 41.0618L28.213 47.8836L30.2154 45.9943L23.779 39.1725L21.7767 41.0618ZM29.2142 45.5625H23.6257V48.3154H29.2142V45.5625ZM4.55887 28.6319C4.55887 30.7917 4.98062 32.7589 5.86461 34.4974L8.31854 33.2496C7.66089 31.9562 7.31181 30.4289 7.31181 28.6319H4.55887ZM5.87762 34.5223C6.78683 36.2234 8.05135 37.5696 9.66585 38.5264L11.0693 36.158C9.90883 35.4703 8.98936 34.5041 8.30553 33.2247L5.87762 34.5223ZM9.68228 38.5359C11.3003 39.4648 13.1214 39.9134 15.1081 39.9134V37.1605C13.5491 37.1605 12.2099 36.8126 11.0529 36.1484L9.68228 38.5359ZM15.1081 39.9134C17.0949 39.9134 18.916 39.4648 20.534 38.5359L19.1634 36.1484C18.0064 36.8126 16.6672 37.1605 15.1081 37.1605V39.9134ZM20.5504 38.5264C22.169 37.5672 23.4245 36.2155 24.3088 34.5059L21.8636 33.2411C21.2062 34.512 20.3034 35.4728 19.147 36.158L20.5504 38.5264ZM24.3047 34.5137C25.22 32.7716 25.6574 30.7986 25.6574 28.6319H22.9045C22.9045 30.4221 22.5454 31.9434 21.8677 33.2333L24.3047 34.5137ZM25.6574 28.6319C25.6574 26.4658 25.2202 24.5015 24.3001 22.78L21.8722 24.0777C22.5451 25.3367 22.9045 26.841 22.9045 28.6319H25.6574ZM24.3088 22.7965C23.4227 21.0834 22.1623 19.7397 20.534 18.8049L19.1634 21.1924C20.3101 21.8507 21.208 22.7938 21.8636 24.0612L24.3088 22.7965ZM20.534 18.8049C18.916 17.8761 17.0949 17.4274 15.1081 17.4274V20.1804C16.6672 20.1804 18.0064 20.5282 19.1634 21.1924L20.534 18.8049ZM15.1081 17.4274C13.1214 17.4274 11.3003 17.8761 9.68228 18.8049L11.0529 21.1924C12.2099 20.5282 13.5491 20.1804 15.1081 20.1804V17.4274ZM9.68228 18.8049C8.05817 19.7373 6.78864 21.0755 5.87762 22.78L8.30553 24.0777C8.98755 22.8016 9.90202 21.8531 11.0529 21.1924L9.68228 18.8049ZM5.86897 22.7965C4.9804 24.5144 4.55887 26.4727 4.55887 28.6319H7.31181C7.31181 26.8342 7.6611 25.3238 8.31418 24.0612L5.86897 22.7965ZM52.4588 20.8466H53.8352V19.4701H52.4588V20.8466ZM52.4588 42.0828V43.4592H53.8352V42.0828H52.4588ZM48.0651 42.0828H46.6886V43.4592H48.0651V42.0828ZM48.0651 39.5776H49.4415V35.6309L46.9871 38.7216L48.0651 39.5776ZM45.3286 41.6588L45.885 42.9179L45.8916 42.9149L45.8982 42.9119L45.3286 41.6588ZM37.2735 41.3505L36.6295 42.567L36.6392 42.5721L37.2735 41.3505ZM34.1517 38.2672L32.9442 38.9279L32.9489 38.9366L32.9538 38.9452L34.1517 38.2672ZM33.034 20.8466V19.4701H31.6575V20.8466H33.034ZM37.3892 20.8466H38.7656V19.4701H37.3892V20.8466ZM38.8152 37.0724L37.8047 38.0071L37.8106 38.0135L37.8166 38.0198L38.8152 37.0724ZM46.6005 37.0724L45.6026 36.1244L45.6019 36.125L46.6005 37.0724ZM48.0651 20.8466V19.4701H46.6886V20.8466H48.0651ZM51.0823 20.8466V42.0828H53.8352V20.8466H51.0823ZM52.4588 40.7063H48.0651V43.4592H52.4588V40.7063ZM49.4415 42.0828V39.5776H46.6886V42.0828H49.4415ZM46.9871 38.7216C46.4437 39.4058 45.7139 39.9717 44.7591 40.4057L45.8982 42.9119C47.2045 42.3181 48.2989 41.4965 49.143 40.4336L46.9871 38.7216ZM44.7723 40.3998C43.8501 40.8072 42.8586 41.0146 41.7829 41.0146V43.7676C43.2252 43.7676 44.5974 43.4868 45.885 42.9179L44.7723 40.3998ZM41.7829 41.0146C40.309 41.0146 39.0273 40.7101 37.9078 40.1289L36.6392 42.5721C38.192 43.3783 39.9165 43.7676 41.7829 43.7676V41.0146ZM37.9176 40.134C36.8525 39.5701 35.9985 38.7355 35.3496 37.5891L32.9538 38.9452C33.8466 40.5224 35.0737 41.7434 36.6295 42.567L37.9176 40.134ZM35.3592 37.6065C34.7486 36.4905 34.4105 35.085 34.4105 33.3339H31.6575C31.6575 35.4369 32.0645 37.3203 32.9442 38.9279L35.3592 37.6065ZM34.4105 33.3339V20.8466H31.6575V33.3339H34.4105ZM33.034 22.223H37.3892V19.4701H33.034V22.223ZM36.0127 20.8466V32.6787H38.7656V20.8466H36.0127ZM36.0127 32.6787C36.0127 34.8007 36.5453 36.6456 37.8047 38.0071L39.8256 36.1377C39.1837 35.4437 38.7656 34.3594 38.7656 32.6787H36.0127ZM37.8166 38.0198C39.0763 39.3476 40.7636 39.952 42.7078 39.952V37.199C41.3632 37.199 40.4554 36.8014 39.8138 36.125L37.8166 38.0198ZM42.7078 39.952C44.6521 39.952 46.3394 39.3476 47.5991 38.0198L45.6019 36.125C44.9603 36.8014 44.0525 37.199 42.7078 37.199V39.952ZM47.5984 38.0205C48.8912 36.6597 49.4415 34.8098 49.4415 32.6787H46.6886C46.6886 34.3504 46.2626 35.4296 45.6026 36.1244L47.5984 38.0205ZM49.4415 32.6787V20.8466H46.6886V32.6787H49.4415ZM48.0651 22.223H52.4588V19.4701H48.0651V22.223ZM58.4871 17.2237L59.4604 16.2504V16.2504L58.4871 17.2237ZM58.4871 13.2154L59.4604 14.1887V14.1887L58.4871 13.2154ZM62.4569 13.2154L61.4836 14.1887L61.4836 14.1887L62.4569 13.2154ZM62.4569 17.2237L61.4836 16.2504L61.4836 16.2504L62.4569 17.2237ZM62.6496 20.8466H64.0261V19.4701H62.6496V20.8466ZM62.6496 42.0828V43.4592H64.0261V42.0828H62.6496ZM58.2559 42.0828H56.8794V43.4592H58.2559V42.0828ZM58.2559 20.8466V19.4701H56.8794V20.8466H58.2559ZM60.4913 16.6566C60.042 16.6566 59.7295 16.5195 59.4604 16.2504L57.5138 18.197C58.3239 19.0071 59.3475 19.4095 60.4913 19.4095V16.6566ZM59.4604 16.2504C59.1914 15.9813 59.0542 15.6689 59.0542 15.2196H56.3013C56.3013 16.3633 56.7038 17.387 57.5138 18.197L59.4604 16.2504ZM59.0542 15.2196C59.0542 14.7703 59.1914 14.4578 59.4604 14.1887L57.5138 12.2421C56.7038 13.0522 56.3013 14.0758 56.3013 15.2196H59.0542ZM59.4604 14.1887C59.7295 13.9196 60.042 13.7825 60.4913 13.7825V11.0296C59.3475 11.0296 58.3239 11.4321 57.5138 12.2421L59.4604 14.1887ZM60.4913 13.7825C60.9012 13.7825 61.2051 13.9102 61.4836 14.1887L63.4302 12.2421C62.6295 11.4415 61.623 11.0296 60.4913 11.0296V13.7825ZM61.4836 14.1887C61.7527 14.4578 61.8898 14.7703 61.8898 15.2196H64.6427C64.6427 14.0758 64.2402 13.0522 63.4302 12.2421L61.4836 14.1887ZM61.8898 15.2196C61.8898 15.6689 61.7527 15.9813 61.4836 16.2504L63.4302 18.197C64.2402 17.387 64.6427 16.3633 64.6427 15.2196H61.8898ZM61.4836 16.2504C61.2051 16.5289 60.9012 16.6566 60.4913 16.6566V19.4095C61.623 19.4095 62.6295 18.9977 63.4302 18.197L61.4836 16.2504ZM61.2731 20.8466V42.0828H64.0261V20.8466H61.2731ZM62.6496 40.7063H58.2559V43.4592H62.6496V40.7063ZM59.6324 42.0828V20.8466H56.8794V42.0828H59.6324ZM58.2559 22.223H62.6496V19.4701H58.2559V22.223ZM68.264 25.7028L67.052 25.0502L67.0484 25.057L68.264 25.7028ZM71.9639 21.8486L71.2789 20.6547V20.6547L71.9639 21.8486ZM83.719 22.3497L82.9013 23.457L82.9108 23.464L82.9205 23.4709L83.719 22.3497ZM87.1491 27.5527V28.9292H88.9316L88.4809 27.2047L87.1491 27.5527ZM82.4086 27.5527L81.1159 28.0257L81.4464 28.9292H82.4086V27.5527ZM73.0431 26.1267L71.9891 25.2414L71.9874 25.2434L73.0431 26.1267ZM73.0431 36.8026L71.9787 37.6754L71.9838 37.6817L71.9891 37.688L73.0431 36.8026ZM82.4086 35.3766V34.0001H81.4482L81.1167 34.9014L82.4086 35.3766ZM87.1491 35.3766L88.4726 35.7547L88.974 34.0001H87.1491V35.3766ZM83.6804 40.5411L84.501 41.6464L84.5116 41.6383L83.6804 40.5411ZM71.9639 41.0807L71.2643 42.2661L71.2716 42.2704L71.2789 42.2746L71.9639 41.0807ZM68.264 37.2266L67.0443 37.8646L67.0502 37.8759L67.0563 37.887L68.264 37.2266ZM68.33 31.4454C68.33 29.4476 68.7285 27.7623 69.4795 26.3485L67.0484 25.057C66.0522 26.9321 65.5771 29.0752 65.5771 31.4454H68.33ZM69.4759 26.3553C70.2598 24.8995 71.3156 23.8076 72.6489 23.0425L71.2789 20.6547C69.4775 21.6883 68.0667 23.1658 67.052 25.0502L69.4759 26.3553ZM72.6489 23.0426C73.983 22.2771 75.54 21.8762 77.3597 21.8762V19.1232C75.1197 19.1232 73.0795 19.6216 71.2789 20.6547L72.6489 23.0426ZM77.3597 21.8762C79.7058 21.8762 81.5193 22.4365 82.9013 23.457L84.5366 21.2424C82.5783 19.7963 80.1523 19.1232 77.3597 19.1232V21.8762ZM82.9205 23.4709C84.3211 24.4683 85.2974 25.9113 85.8174 27.9008L88.4809 27.2047C87.8189 24.672 86.5085 22.6463 84.5174 21.2285L82.9205 23.4709ZM87.1491 26.1763H82.4086V28.9292H87.1491V26.1763ZM83.7012 27.0798C83.2274 25.7847 82.4455 24.7234 81.3456 23.9569L79.7715 26.2154C80.3675 26.6307 80.8189 27.2139 81.1159 28.0257L83.7012 27.0798ZM81.3456 23.9569C80.2161 23.1696 78.8569 22.8232 77.3597 22.8232V25.5761C78.4319 25.5761 79.2053 25.8207 79.7715 26.2154L81.3456 23.9569ZM77.3597 22.8232C75.1878 22.8232 73.3505 23.6207 71.9891 25.2414L74.097 27.0121C74.8939 26.0634 75.9344 25.5761 77.3597 25.5761V22.8232ZM71.9874 25.2434C70.6582 26.8319 70.0864 28.9615 70.0864 31.4454H72.8393C72.8393 29.3558 73.321 27.9395 74.0987 27.01L71.9874 25.2434ZM70.0864 31.4454C70.0864 33.9315 70.6591 36.0661 71.9787 37.6754L74.1074 35.9298C73.3201 34.9697 72.8393 33.5329 72.8393 31.4454H70.0864ZM71.9891 37.688C73.3505 39.3087 75.1878 40.1062 77.3597 40.1062V37.3532C75.9344 37.3532 74.8939 36.866 74.097 35.9173L71.9891 37.688ZM77.3597 40.1062C78.8323 40.1062 80.1719 39.7814 81.2912 39.038C82.4177 38.2899 83.207 37.1933 83.7004 35.8518L81.1167 34.9014C80.7879 35.7953 80.3246 36.3752 79.7682 36.7448C79.2045 37.1192 78.4307 37.3532 77.3597 37.3532V40.1062ZM82.4086 36.7531H87.1491V34.0001H82.4086V36.7531ZM85.8256 34.9985C85.286 36.887 84.2938 38.3496 82.8492 39.4439L84.5116 41.6383C86.4587 40.1632 87.7789 38.1829 88.4726 35.7547L85.8256 34.9985ZM82.8599 39.4359C81.4444 40.4869 79.6406 41.0532 77.3597 41.0532V43.8061C80.1148 43.8061 82.5248 43.1134 84.5009 41.6463L82.8599 39.4359ZM77.3597 41.0532C75.54 41.0532 73.983 40.6523 72.6489 39.8868L71.2789 42.2746C73.0795 43.3077 75.1197 43.8061 77.3597 43.8061V41.0532ZM72.6635 39.8953C71.3163 39.1002 70.2557 37.9998 69.4716 36.5661L67.0563 37.887C68.0708 39.7422 69.4768 41.2112 71.2643 42.2661L72.6635 39.8953ZM69.4836 36.5886C68.7283 35.1445 68.33 33.4426 68.33 31.4454H65.5771C65.5771 33.8162 66.0524 35.9684 67.0443 37.8646L69.4836 36.5886ZM99.9297 31.4839L98.9169 30.5518L98.0575 31.4856L98.9186 32.4179L99.9297 31.4839ZM109.719 42.0828V43.4592H112.864L110.73 41.1488L109.719 42.0828ZM103.784 42.0828L102.741 42.9807L103.153 43.4592H103.784V42.0828ZM95.9215 32.9485L96.9647 32.0505L94.545 29.2394V32.9485H95.9215ZM95.9215 42.0828V43.4592H97.2979V42.0828H95.9215ZM91.5278 42.0828H90.1513V43.4592H91.5278V42.0828ZM91.5278 13.5623V12.1858H90.1513V13.5623H91.5278ZM95.9215 13.5623H97.2979V12.1858H95.9215V13.5623ZM95.9215 30.135H94.545V33.9491L96.9807 31.014L95.9215 30.135ZM103.63 20.8466V19.4701H102.983L102.57 19.9675L103.63 20.8466ZM109.719 20.8466L110.732 21.7787L112.857 19.4701H109.719V20.8466ZM98.9186 32.4179L108.708 43.0167L110.73 41.1488L100.941 30.55L98.9186 32.4179ZM109.719 40.7063H103.784V43.4592H109.719V40.7063ZM104.827 41.1848L96.9647 32.0505L94.8782 33.8465L102.741 42.9807L104.827 41.1848ZM94.545 32.9485V42.0828H97.2979V32.9485H94.545ZM95.9215 40.7063H91.5278V43.4592H95.9215V40.7063ZM92.9042 42.0828V13.5623H90.1513V42.0828H92.9042ZM91.5278 14.9388H95.9215V12.1858H91.5278V14.9388ZM94.545 13.5623V30.135H97.2979V13.5623H94.545ZM96.9807 31.014L104.689 21.7256L102.57 19.9675L94.8622 29.256L96.9807 31.014ZM103.63 22.223H109.719V19.4701H103.63V22.223ZM108.706 19.9145L98.9169 30.5518L100.943 32.416L110.732 21.7787L108.706 19.9145ZM153.058 21.5403L152.414 22.7569L152.424 22.7619L153.058 21.5403ZM156.18 24.6236L154.972 25.2843L154.977 25.293L154.982 25.3017L156.18 24.6236ZM157.336 42.0828V43.4592H158.712V42.0828H157.336ZM152.981 42.0828H151.604V43.4592H152.981V42.0828ZM151.555 25.8569L150.544 26.7916L150.55 26.798L150.556 26.8043L151.555 25.8569ZM143.731 25.8569L142.733 24.9089L142.732 24.9096L143.731 25.8569ZM142.305 42.0828V43.4592H143.681V42.0828H142.305ZM137.95 42.0828H136.573V43.4592H137.95V42.0828ZM136.524 25.8569L135.513 26.7916L135.519 26.798L135.525 26.8043L136.524 25.8569ZM128.7 25.8569L127.702 24.9089L127.701 24.9096L128.7 25.8569ZM127.274 42.0828V43.4592H128.65V42.0828H127.274ZM122.88 42.0828H121.504V43.4592H122.88V42.0828ZM122.88 20.8466V19.4701H121.504V20.8466H122.88ZM127.274 20.8466H128.65V19.4701H127.274V20.8466ZM127.274 23.2747H125.897V27.1114L128.336 24.1497L127.274 23.2747ZM130.01 21.232L130.567 22.491L130.01 21.232ZM138.104 21.5789L138.756 20.3669L138.104 21.5789ZM141.187 24.7007L139.97 25.3437L141.221 27.7112L142.418 25.3163L141.187 24.7007ZM144.193 21.6559L144.854 22.8635L144.863 22.8587L144.871 22.8538L144.193 21.6559ZM148.587 21.8762C150.061 21.8762 151.326 22.1808 152.414 22.7568L153.702 20.3238C152.169 19.5123 150.453 19.1232 148.587 19.1232V21.8762ZM152.424 22.7619C153.509 23.3257 154.354 24.1543 154.972 25.2843L157.387 23.9629C156.515 22.3693 155.279 21.1425 153.692 20.3187L152.424 22.7619ZM154.982 25.3017C155.611 26.4139 155.959 27.8129 155.959 29.5569H158.712C158.712 27.4467 158.29 25.5569 157.378 23.9456L154.982 25.3017ZM155.959 29.5569V42.0828H158.712V29.5569H155.959ZM157.336 40.7063H152.981V43.4592H157.336V40.7063ZM154.357 42.0828V30.2121H151.604V42.0828H154.357ZM154.357 30.2121C154.357 28.0927 153.826 26.2506 152.553 24.9096L150.556 26.8043C151.185 27.4674 151.604 28.5288 151.604 30.2121H154.357ZM152.565 24.9222C151.308 23.5633 149.617 22.9388 147.662 22.9388V25.6918C148.996 25.6918 149.9 26.095 150.544 26.7916L152.565 24.9222ZM147.662 22.9388C145.706 22.9388 144.011 23.5633 142.733 24.9089L144.729 26.805C145.403 26.0951 146.329 25.6918 147.662 25.6918V22.9388ZM142.732 24.9096C141.46 26.2506 140.928 28.0927 140.928 30.2121H143.681C143.681 28.5288 144.1 27.4674 144.729 26.8043L142.732 24.9096ZM140.928 30.2121V42.0828H143.681V30.2121H140.928ZM142.305 40.7063H137.95V43.4592H142.305V40.7063ZM139.326 42.0828V30.2121H136.573V42.0828H139.326ZM139.326 30.2121C139.326 28.0927 138.795 26.2506 137.522 24.9096L135.525 26.8043C136.154 27.4674 136.573 28.5288 136.573 30.2121H139.326ZM137.534 24.9222C136.277 23.5633 134.586 22.9388 132.631 22.9388V25.6918C133.965 25.6918 134.869 26.095 135.513 26.7916L137.534 24.9222ZM132.631 22.9388C130.675 22.9388 128.98 23.5633 127.702 24.9089L129.698 26.805C130.372 26.0951 131.298 25.6918 132.631 25.6918V22.9388ZM127.701 24.9096C126.429 26.2506 125.897 28.0927 125.897 30.2121H128.65C128.65 28.5288 129.069 27.4674 129.698 26.8043L127.701 24.9096ZM125.897 30.2121V42.0828H128.65V30.2121H125.897ZM127.274 40.7063H122.88V43.4592H127.274V40.7063ZM124.257 42.0828V20.8466H121.504V42.0828H124.257ZM122.88 22.223H127.274V19.4701H122.88V22.223ZM125.897 20.8466V23.2747H128.65V20.8466H125.897ZM128.336 24.1497C128.91 23.4529 129.645 22.8984 130.567 22.491L129.454 19.9729C128.166 20.5419 127.076 21.3492 126.211 22.3996L128.336 24.1497ZM130.567 22.491C131.489 22.0836 132.48 21.8762 133.556 21.8762V19.1232C132.114 19.1232 130.741 19.404 129.454 19.9729L130.567 22.491ZM133.556 21.8762C135.051 21.8762 136.338 22.1916 137.451 22.7908L138.756 20.3669C137.197 19.5273 135.452 19.1232 133.556 19.1232V21.8762ZM137.451 22.7908C138.543 23.3787 139.376 24.2195 139.97 25.3437L142.404 24.0577C141.559 22.4583 140.337 21.2179 138.756 20.3669L137.451 22.7908ZM142.418 25.3163C142.925 24.3029 143.717 23.4854 144.854 22.8635L143.533 20.4484C141.946 21.3167 140.734 22.5291 139.956 24.0851L142.418 25.3163ZM144.871 22.8538C146.026 22.2003 147.257 21.8762 148.587 21.8762V19.1232C146.782 19.1232 145.084 19.57 143.515 20.4581L144.871 22.8538ZM182.236 33.1027V34.4791H183.41L183.595 33.3201L182.236 33.1027ZM166.01 33.1027V31.7262H164.525L164.638 33.2066L166.01 33.1027ZM167.899 37.188L166.973 38.2065L167.899 37.188ZM177.071 35.762V34.3855H176.216L175.837 35.1529L177.071 35.762ZM181.812 35.762L183.12 36.1921L183.714 34.3855H181.812V35.762ZM178.305 40.5797L179.122 41.6869L179.125 41.6848L178.305 40.5797ZM166.588 41.0807L165.897 42.271L165.908 42.2776L165.92 42.2839L166.588 41.0807ZM162.811 37.2266L161.599 37.8792L161.605 37.8903L161.611 37.9014L162.811 37.2266ZM162.773 25.7028L161.561 25.0502L161.557 25.057L162.773 25.7028ZM166.511 21.8486L165.843 20.6454L165.834 20.65L166.511 21.8486ZM177.418 21.8101L178.088 20.6078V20.6078L177.418 21.8101ZM181.08 25.5101L179.873 26.1719L179.877 26.1802L181.08 25.5101ZM177.804 29.5569V30.9334H179.202L179.18 29.535L177.804 29.5569ZM176.069 25.6642L176.969 24.6225L176.069 25.6642ZM167.976 25.6642L168.886 26.6971L168.892 26.691L168.899 26.6849L167.976 25.6642ZM166.049 29.5569L164.683 29.3862L164.489 30.9334H166.049V29.5569ZM181.014 30.9444C181.014 31.6836 180.966 32.3286 180.877 32.8852L183.595 33.3201C183.712 32.592 183.767 31.7982 183.767 30.9444H181.014ZM182.236 31.7262H166.01V34.4791H182.236V31.7262ZM164.638 33.2066C164.789 35.2101 165.552 36.9147 166.973 38.2065L168.825 36.1695C167.985 35.4059 167.488 34.3868 167.383 32.9987L164.638 33.2066ZM166.973 38.2065C168.377 39.4831 170.103 40.1062 172.061 40.1062V37.3532C170.731 37.3532 169.681 36.9485 168.825 36.1695L166.973 38.2065ZM172.061 40.1062C173.436 40.1062 174.699 39.8173 175.788 39.1721C176.883 38.5235 177.716 37.5661 178.306 36.3712L175.837 35.1529C175.45 35.9364 174.96 36.4628 174.385 36.8034C173.804 37.1475 173.05 37.3532 172.061 37.3532V40.1062ZM177.071 37.1385H181.812V34.3855H177.071V37.1385ZM180.504 35.3319C179.953 37.007 178.959 38.3799 177.484 39.4745L179.125 41.6848C181.042 40.2614 182.386 38.4226 183.12 36.1921L180.504 35.3319ZM177.487 39.4724C176.098 40.498 174.32 41.0532 172.061 41.0532V43.8061C174.787 43.8061 177.171 43.1279 179.122 41.6869L177.487 39.4724ZM172.061 41.0532C170.242 41.0532 168.652 40.6524 167.257 39.8774L165.92 42.2839C167.762 43.3075 169.82 43.8061 172.061 43.8061V41.0532ZM167.279 39.8903C165.904 39.0918 164.818 37.9875 164.011 36.5517L161.611 37.9014C162.654 39.7545 164.086 41.2196 165.897 42.271L167.279 39.8903ZM164.023 36.574C163.247 35.133 162.839 33.4364 162.839 31.4454H160.086C160.086 33.8224 160.577 35.98 161.599 37.8792L164.023 36.574ZM162.839 31.4454C162.839 29.4476 163.237 27.7623 163.988 26.3485L161.557 25.057C160.561 26.9321 160.086 29.0752 160.086 31.4454H162.839ZM163.985 26.3553C164.765 24.9053 165.83 23.8139 167.188 23.0473L165.834 20.65C164.006 21.682 162.578 23.16 161.561 25.0502L163.985 26.3553ZM167.18 23.0519C168.57 22.2797 170.184 21.8762 172.061 21.8762V19.1232C169.775 19.1232 167.69 19.619 165.843 20.6454L167.18 23.0519ZM172.061 21.8762C173.859 21.8762 175.409 22.2659 176.748 23.0124L178.088 20.6078C176.293 19.6071 174.272 19.1232 172.061 19.1232V21.8762ZM176.748 23.0124C178.086 23.7583 179.122 24.8029 179.873 26.1719L182.287 24.8482C181.29 23.0311 179.885 21.6091 178.088 20.6078L176.748 23.0124ZM179.877 26.1802C180.621 27.5144 181.014 29.0888 181.014 30.9444H183.767C183.767 28.6888 183.286 26.6404 182.282 24.8399L179.877 26.1802ZM179.18 29.535C179.149 27.5609 178.423 25.8785 176.969 24.6225L175.17 26.706C175.976 27.4027 176.407 28.3154 176.427 29.5787L179.18 29.535ZM176.969 24.6225C175.559 23.4044 173.827 22.8232 171.868 22.8232V25.5761C173.25 25.5761 174.319 25.9713 175.17 26.706L176.969 24.6225ZM171.868 22.8232C170.027 22.8232 168.396 23.4279 167.052 24.6435L168.899 26.6849C169.714 25.9478 170.678 25.5761 171.868 25.5761V22.8232ZM167.066 24.6314C165.696 25.8377 164.923 27.4624 164.683 29.3862L167.414 29.7276C167.585 28.3625 168.097 27.3921 168.886 26.6971L167.066 24.6314ZM166.049 30.9334H177.804V28.1804H166.049V30.9334ZM201.899 21.5403L201.255 22.7569L201.265 22.7619L201.899 21.5403ZM205.021 24.6236L203.813 25.2843L205.021 24.6236ZM206.139 42.0828V43.4592H207.515V42.0828H206.139ZM201.784 42.0828H200.407V43.4592H201.784V42.0828ZM200.358 25.8569L199.347 26.7916L199.353 26.798L199.359 26.8043L200.358 25.8569ZM192.534 25.8569L191.536 24.9089L191.535 24.9096L192.534 25.8569ZM191.108 42.0828V43.4592H192.484V42.0828H191.108ZM186.714 42.0828H185.337V43.4592H186.714V42.0828ZM186.714 20.8466V19.4701H185.337V20.8466H186.714ZM191.108 20.8466H192.484V19.4701H191.108V20.8466ZM191.108 23.2747H189.731V27.1114L192.17 24.1497L191.108 23.2747ZM193.844 21.232L193.298 19.9683L193.288 19.9729L193.844 21.232ZM197.428 21.8762C198.903 21.8762 200.167 22.1808 201.255 22.7568L202.543 20.3238C201.01 19.5123 199.294 19.1232 197.428 19.1232V21.8762ZM201.265 22.7619C202.351 23.3257 203.195 24.1543 203.813 25.2843L206.229 23.9629C205.357 22.3693 204.12 21.1425 202.533 20.3187L201.265 22.7619ZM203.813 25.2843C204.424 26.4003 204.762 27.8058 204.762 29.5569H207.515C207.515 27.4539 207.108 25.5705 206.229 23.9629L203.813 25.2843ZM204.762 29.5569V42.0828H207.515V29.5569H204.762ZM206.139 40.7063H201.784V43.4592H206.139V40.7063ZM203.16 42.0828V30.2121H200.407V42.0828H203.16ZM203.16 30.2121C203.16 28.0927 202.628 26.2506 201.356 24.9096L199.359 26.8043C199.988 27.4674 200.407 28.5288 200.407 30.2121H203.16ZM201.368 24.9222C200.111 23.5633 198.42 22.9388 196.465 22.9388V25.6918C197.799 25.6918 198.703 26.095 199.347 26.7916L201.368 24.9222ZM196.465 22.9388C194.509 22.9388 192.814 23.5633 191.536 24.9089L193.532 26.805C194.206 26.0951 195.132 25.6918 196.465 25.6918V22.9388ZM191.535 24.9096C190.263 26.2506 189.731 28.0927 189.731 30.2121H192.484C192.484 28.5288 192.903 27.4674 193.532 26.8043L191.535 24.9096ZM189.731 30.2121V42.0828H192.484V30.2121H189.731ZM191.108 40.7063H186.714V43.4592H191.108V40.7063ZM188.09 42.0828V20.8466H185.337V42.0828H188.09ZM186.714 22.223H191.108V19.4701H186.714V22.223ZM189.731 20.8466V23.2747H192.484V20.8466H189.731ZM192.17 24.1497C192.744 23.4529 193.478 22.8984 194.4 22.491L193.288 19.9729C192 20.5419 190.91 21.3492 190.045 22.3996L192.17 24.1497ZM194.39 22.4957C195.344 22.0836 196.353 21.8762 197.428 21.8762V19.1232C195.986 19.1232 194.605 19.404 193.298 19.9683L194.39 22.4957ZM230.975 20.8466H232.352V19.4701H230.975V20.8466ZM230.975 42.0828V43.4592H232.352V42.0828H230.975ZM226.581 42.0828H225.205V43.4592H226.581V42.0828ZM226.581 39.5776H227.958V35.6309L225.504 38.7216L226.581 39.5776ZM223.845 41.6588L224.401 42.9179L224.408 42.9149L224.415 42.9119L223.845 41.6588ZM215.79 41.3505L215.146 42.567L215.156 42.5721L215.79 41.3505ZM212.668 38.2672L211.461 38.9279L211.465 38.9366L211.47 38.9452L212.668 38.2672ZM211.55 20.8466V19.4701H210.174V20.8466H211.55ZM215.906 20.8466H217.282V19.4701H215.906V20.8466ZM217.332 37.0724L216.321 38.0071L216.327 38.0135L216.333 38.0198L217.332 37.0724ZM225.117 37.0724L224.119 36.1244L224.118 36.125L225.117 37.0724ZM226.581 20.8466V19.4701H225.205V20.8466H226.581ZM229.599 20.8466V42.0828H232.352V20.8466H229.599ZM230.975 40.7063H226.581V43.4592H230.975V40.7063ZM227.958 42.0828V39.5776H225.205V42.0828H227.958ZM225.504 38.7216C224.96 39.4058 224.23 39.9717 223.275 40.4057L224.415 42.9119C225.721 42.3181 226.815 41.4965 227.659 40.4336L225.504 38.7216ZM223.289 40.3998C222.367 40.8072 221.375 41.0146 220.299 41.0146V43.7676C221.742 43.7676 223.114 43.4868 224.401 42.9179L223.289 40.3998ZM220.299 41.0146C218.825 41.0146 217.544 40.7101 216.424 40.1289L215.156 42.5721C216.708 43.3783 218.433 43.7676 220.299 43.7676V41.0146ZM216.434 40.134C215.369 39.5701 214.515 38.7355 213.866 37.5891L211.47 38.9452C212.363 40.5224 213.59 41.7434 215.146 42.567L216.434 40.134ZM213.876 37.6065C213.265 36.4905 212.927 35.085 212.927 33.3339H210.174C210.174 35.4369 210.581 37.3203 211.461 38.9279L213.876 37.6065ZM212.927 33.3339V20.8466H210.174V33.3339H212.927ZM211.55 22.223H215.906V19.4701H211.55V22.223ZM214.529 20.8466V32.6787H217.282V20.8466H214.529ZM214.529 32.6787C214.529 34.8007 215.062 36.6456 216.321 38.0071L218.342 36.1377C217.7 35.4437 217.282 34.3594 217.282 32.6787H214.529ZM216.333 38.0198C217.593 39.3476 219.28 39.952 221.224 39.952V37.199C219.88 37.199 218.972 36.8014 218.33 36.125L216.333 38.0198ZM221.224 39.952C223.168 39.952 224.856 39.3476 226.115 38.0198L224.118 36.125C223.477 36.8014 222.569 37.199 221.224 37.199V39.952ZM226.115 38.0205C227.408 36.6597 227.958 34.8098 227.958 32.6787H225.205C225.205 34.3504 224.779 35.4296 224.119 36.1244L226.115 38.0205ZM227.958 32.6787V20.8466H225.205V32.6787H227.958ZM226.581 22.223H230.975V19.4701H226.581V22.223Z" fill="#A855F7" mask="url(#path-1-outside-1_1_273)"/>
</svg>
